
		<svg xmlns="http://www.w3.org/2000/svg" xmlns:xlink="http://www.w3.org/1999/xlink" version="1.1" width="3160" height="1296">
			
			<g transform="scale(8) translate(10, 10)">
				<defs id="SvgjsDefs1840"/><g id="SvgjsG1841" featureKey="root" fill="#000" transform="matrix(1,0,0,1,NaN,NaN)"/><g id="SvgjsG1842" featureKey="symbol1" fill="#000" transform="matrix(1.4199044667678418,0,0,1.4199044667678418,9.006066890189091,0.05403351315874261)"><path xmlns="http://www.w3.org/2000/svg" d="M98.8,56.7c-1.3-1.9-2.8-4.7-4.2-7.5c-1.4-2.7-2.5-7.3-2.5-10.3L92,37.9C90.8,19.9,75.1,5.7,56.5,7.1  c-11,0.8-20.6,7.1-26,16.1l6.4,1.8l11.5,12.8l7.2,8.4h-29l-0.4-0.8c0.2,1,0.4,2,0.6,2.9l27.5,0.2L34.7,58.8l-2.2,1.3  c0.4,0.6,0.9,1.2,1.4,1.7v14.9c0,1.4,0.9,2.7,2.2,3.1l38.2,13c1.4,0.5,2.9-0.6,2.9-2.1v-8h9.1c3.2,0,5.8-2.6,5.8-5.8V61.1h4.3  C98.7,61.1,100.1,58.6,98.8,56.7z M58.5,46.2l-9.8-11.4l18.9-6.3l-4.4,8.4L58.5,46.2z M65.4,37.2l4.4-8.4l9.4,8.7L65.4,37.2z   M23.9,46.2L0.7,28.5L14,28.2L23.9,46.2z M26.1,45.4l-9.5-17.2l-5.9-10.7l19.8,5.6c-2.9,4.8-4.6,10.3-4.8,16.1  C25.7,41.3,25.8,43.4,26.1,45.4z M26.7,48.3c1.1,4.3,3.1,8.3,5.7,11.8L10.3,72.9l16.4-24.5L26.7,48.3z"/></g><g id="SvgjsG1843" featureKey="text1" fill="#000" transform="matrix(2.083446585353576,0,0,2.083446585353576,157.29151953838684,33.37388158670089)"><path d="M1.3 10.3 c0 -0.2 0.1 -0.3 0.3 -0.3 l0.72 0 c0.2 0 0.3 0.1 0.3 0.3 l0 13.4 c0 0.2 -0.1 0.3 -0.3 0.3 l-0.72 0 c-0.2 0 -0.3 -0.1 -0.3 -0.3 l0 -13.4 z M16.64 10 c0.2 0 0.3 0.1 0.3 0.3 l0 13.4 c0 0.2 -0.1 0.3 -0.3 0.3 l-0.72 0 c-0.2 0 -0.3 -0.1 -0.3 -0.3 l0 -12.12 l-3.8 12.12 c-0.06 0.2 -0.2 0.3 -0.38 0.3 l-0.72 0 c-0.18 0 -0.32 -0.1 -0.38 -0.3 l-3.8 -12.12 l0 12.12 c0 0.2 -0.1 0.3 -0.3 0.3 l-0.72 0 c-0.2 0 -0.3 -0.1 -0.3 -0.3 l0 -13.4 c0 -0.2 0.1 -0.3 0.3 -0.3 l1.48 0 c0.2 0 0.34 0.1 0.4 0.3 l3.68 11.58 l3.68 -11.58 c0.06 -0.2 0.2 -0.3 0.4 -0.3 l1.48 0 z M28.880000000000003 23.68 c0.08 0.22 -0.04 0.32 -0.24 0.32 l-0.74 0 c-0.2 0 -0.28 -0.1 -0.36 -0.32 l-0.88 -2.94 l-5.56 0 l-0.88 2.94 c-0.06 0.22 -0.16 0.32 -0.36 0.32 l-0.74 0 c-0.2 0 -0.3 -0.1 -0.24 -0.32 l4.14 -13.36 c0.06 -0.2 0.2 -0.32 0.38 -0.32 l0.94 0 c0.18 0 0.32 0.12 0.38 0.32 z M21.46 19.58 l4.84 0 l-2.42 -7.98 z M39.72 16.56 c0.18 0 0.32 0.12 0.32 0.3 l0 3.08 c0 2.74 -1.44 4.16 -4.02 4.16 l-1.38 0 c-2.6 0 -4.02 -1.42 -4.02 -4.16 l0 -5.88 c0 -2.74 1.42 -4.16 4.02 -4.16 l1.38 0 c2.48 0 3.88 1.3 4 3.9 c0.02 0.22 -0.12 0.32 -0.3 0.32 l-0.7 0 c-0.18 0 -0.3 -0.1 -0.32 -0.32 c-0.08 -1.88 -0.88 -2.68 -2.68 -2.68 l-1.38 0 c-1.92 0 -2.7 0.88 -2.7 2.94 l0 5.88 c0 2.06 0.78 2.94 2.7 2.94 l1.38 0 c1.9 0 2.7 -0.88 2.7 -2.94 l0 -2.22 l-2.1 0 c-0.18 0 -0.3 -0.12 -0.3 -0.3 l0 -0.56 c0 -0.18 0.12 -0.3 0.3 -0.3 l3.1 0 z M42.44 10.3 c0 -0.2 0.1 -0.3 0.3 -0.3 l0.72 0 c0.2 0 0.3 0.1 0.3 0.3 l0 13.4 c0 0.2 -0.1 0.3 -0.3 0.3 l-0.72 0 c-0.2 0 -0.3 -0.1 -0.3 -0.3 l0 -13.4 z M55.2 10 c0.2 0 0.3 0.1 0.3 0.3 l0 13.4 c0 0.2 -0.1 0.3 -0.3 0.3 l-1.36 0 c-0.16 0 -0.28 -0.06 -0.36 -0.22 l-5.8 -12.18 l0 12.1 c0 0.2 -0.1 0.3 -0.3 0.3 l-0.72 0 c-0.2 0 -0.3 -0.1 -0.3 -0.3 l0 -13.4 c0 -0.2 0.1 -0.3 0.3 -0.3 l1.36 0 c0.16 0 0.28 0.06 0.36 0.22 l5.8 12.16 l0 -12.08 c0 -0.2 0.1 -0.3 0.3 -0.3 l0.72 0 z M67.44 23.68 c0.08 0.22 -0.04 0.32 -0.24 0.32 l-0.74 0 c-0.2 0 -0.28 -0.1 -0.36 -0.32 l-0.88 -2.94 l-5.56 0 l-0.88 2.94 c-0.06 0.22 -0.16 0.32 -0.36 0.32 l-0.74 0 c-0.2 0 -0.3 -0.1 -0.24 -0.32 l4.14 -13.36 c0.06 -0.2 0.2 -0.32 0.38 -0.32 l0.94 0 c0.18 0 0.32 0.12 0.38 0.32 z M60.02 19.58 l4.84 0 l-2.42 -7.98 z M77.17999999999999 10 c0.2 0 0.3 0.1 0.3 0.3 l0 0.62 c0 0.2 -0.1 0.3 -0.3 0.3 l-3.32 0 l0 12.48 c0 0.2 -0.1 0.3 -0.3 0.3 l-0.72 0 c-0.2 0 -0.3 -0.1 -0.3 -0.3 l0 -12.48 l-3.36 0 c-0.2 0 -0.3 -0.1 -0.3 -0.3 l0 -0.62 c0 -0.2 0.1 -0.3 0.3 -0.3 l4.38 0 l3.62 0 z M79.58 10.3 c0 -0.2 0.1 -0.3 0.3 -0.3 l0.72 0 c0.2 0 0.3 0.1 0.3 0.3 l0 13.4 c0 0.2 -0.1 0.3 -0.3 0.3 l-0.72 0 c-0.2 0 -0.3 -0.1 -0.3 -0.3 l0 -13.4 z M88.8 9.9 c2.6 0 4.02 1.42 4.02 4.16 l0 5.88 c0 2.74 -1.42 4.16 -4.02 4.16 l-1.48 0 c-2.6 0 -4.02 -1.42 -4.02 -4.16 l0 -5.88 c0 -2.74 1.42 -4.16 4.02 -4.16 l1.48 0 z M91.5 19.94 l0 -5.88 c0 -2.06 -0.78 -2.94 -2.7 -2.94 l-1.48 0 c-1.92 0 -2.7 0.88 -2.7 2.94 l0 5.88 c0 2.06 0.78 2.94 2.7 2.94 l1.48 0 c1.92 0 2.7 -0.88 2.7 -2.94 z M104.06 10 c0.2 0 0.3 0.1 0.3 0.3 l0 13.4 c0 0.2 -0.1 0.3 -0.3 0.3 l-1.36 0 c-0.16 0 -0.28 -0.06 -0.36 -0.22 l-5.8 -12.18 l0 12.1 c0 0.2 -0.1 0.3 -0.3 0.3 l-0.72 0 c-0.2 0 -0.3 -0.1 -0.3 -0.3 l0 -13.4 c0 -0.2 0.1 -0.3 0.3 -0.3 l1.36 0 c0.16 0 0.28 0.06 0.36 0.22 l5.8 12.16 l0 -12.08 c0 -0.2 0.1 -0.3 0.3 -0.3 l0.72 0 z"/></g><g id="SvgjsG1844" featureKey="text3" fill="#000" transform="matrix(1.249042514850914,0,0,1.249042514850914,159.03771703962536,75.10708235546478)"><path d="M0.84746 21.729 l0.47441 -0.55932 c0.15238 -0.15254 0.30492 -0.13559 0.44051 -0.033898 c0.32203 0.27119 1.6441 1.7119 3.5254 1.7119 c2.2373 0 3.2203 -1.2203 3.2203 -2.4237 c0 -1.7288 -1.9663 -2.1864 -3.7459 -2.8305 c-2.0169 -0.76271 -3.7458 -1.678 -3.7458 -3.7119 c0 -1.6949 1.2373 -3.5593 4.2712 -3.5593 c2.0847 0 3.5932 1.2542 4 1.6102 c0.13559 0.11864 0.18644 0.27119 0.084912 0.40678 l-0.44068 0.57627 c-0.10169 0.13559 -0.23729 0.16949 -0.38983 0.067797 c-0.33898 -0.25424 -1.5592 -1.3898 -3.2371 -1.3898 c-1.8985 0 -2.9663 1 -2.9663 2.288 c0 1.4915 1.5086 2.0169 3.4917 2.7288 c1.8136 0.67797 4 1.5932 4 3.8305 c0 1.9661 -1.8303 3.6608 -4.5253 3.6608 c-2.4746 0 -4 -1.61 -4.3898 -1.9998 c-0.11864 -0.11864 -0.22034 -0.22034 -0.067797 -0.37271 z M25.80533898305085 10.441 c0.15254 0 0.22051 0.067797 0.22051 0.22034 l0 0.84746 c0 0.13559 -0.067797 0.22034 -0.22034 0.22034 l-4.3729 0 l0 12.034 c0 0.15254 -0.067797 0.23712 -0.20339 0.23712 l-0.67797 0 c-0.30508 0 -0.45763 -0.18644 -0.45763 -0.47441 l0 -11.797 l-4.3729 0 c-0.15254 0 -0.23729 -0.084746 -0.23729 -0.22034 l0 -0.83051 c0 -0.16949 0.084746 -0.23729 0.23729 -0.23729 l10.085 0 z M42.55925423728814 10.441 l-0.89797 0 c-0.16949 0 -0.23729 0.050847 -0.23729 0.22051 l0 8.1524 c0 2.8305 -2.1186 4.0169 -4.0341 4.0169 c-1.8644 0 -3.9492 -1.1864 -3.9492 -4.0169 l0 -8.1524 c0 -0.15254 -0.067797 -0.22034 -0.22034 -0.22034 l-0.88136 0 c-0.16949 0 -0.23729 0.067797 -0.23729 0.22034 l0 8.3388 c0.016784 2.7292 1.9659 5.1186 5.288 5.1186 c3.339 0 5.3559 -2.3895 5.3729 -5.1186 l0 -8.3388 c0 -0.16966 -0.067797 -0.22051 -0.20339 -0.22051 z M53.88967118644068 10.441 c4.6271 0 6.9153 3.4239 6.9153 6.6949 c0 3.4576 -2.3051 6.8642 -6.8644 6.8642 l-4.6271 0 c-0.15254 0 -0.22034 -0.08458 -0.22034 -0.22017 l0 -13.119 c0 -0.15254 0.067797 -0.22034 0.22034 -0.22034 l4.5763 0 z M54.00827118644068 22.7122 c3.5422 0 5.4576 -2.7798 5.4407 -5.5764 c0 -2.7797 -1.8644 -5.4066 -5.4407 -5.4066 l-3.5932 0 l0.016949 10.983 l3.5763 0 z M68.30510677966102 10.441 l-0.86441 0 c-0.15254 0 -0.22034 0.067797 -0.22034 0.22034 l0 13.119 c0 0.13559 0.067797 0.22017 0.22034 0.22017 l0.88136 0 c0.11864 0 0.20339 -0.08458 0.20339 -0.22017 l0 -13.119 c0 -0.15254 -0.084746 -0.22034 -0.22034 -0.22034 z M81.99157457627118 24.11864 c3.8305 0 6.9492 -3.0337 6.9492 -6.8981 c0 -3.8475 -3.1186 -6.8983 -6.9492 -6.8983 c-3.8475 0 -6.9661 3.0508 -6.9661 6.8983 c0 3.8644 3.1186 6.8981 6.9661 6.8981 z M81.99157457627118 22.8307 c-3.0847 0 -5.6441 -2.5085 -5.6441 -5.6102 s2.5593 -5.6102 5.6441 -5.6102 c3.0846 0 5.61 2.5085 5.61 5.6102 s-2.5254 5.6102 -5.61 5.6102 z M94.93220576271186 21.729 l0.47441 -0.55932 c0.15238 -0.15254 0.30492 -0.13559 0.44051 -0.033898 c0.32203 0.27119 1.6441 1.7119 3.5254 1.7119 c2.2373 0 3.2203 -1.2203 3.2203 -2.4237 c0 -1.7288 -1.9663 -2.1864 -3.7459 -2.8305 c-2.0169 -0.76271 -3.7458 -1.678 -3.7458 -3.7119 c0 -1.6949 1.2373 -3.5593 4.2712 -3.5593 c2.0847 0 3.5932 1.2542 4 1.6102 c0.13559 0.11864 0.18644 0.27119 0.084912 0.40678 l-0.44068 0.57627 c-0.10169 0.13559 -0.23729 0.16949 -0.38983 0.067797 c-0.33898 -0.25424 -1.5592 -1.3898 -3.2371 -1.3898 c-1.8985 0 -2.9663 1 -2.9663 2.288 c0 1.4915 1.5086 2.0169 3.4917 2.7288 c1.8136 0.67797 4 1.5932 4 3.8305 c0 1.9661 -1.8303 3.6608 -4.5253 3.6608 c-2.4746 0 -4 -1.61 -4.3898 -1.9998 c-0.11864 -0.11864 -0.22034 -0.22034 -0.067797 -0.37271 z"/></g>
			</g>
		</svg>
	